<svg width="644" height="32" viewBox="0 0 644 32" fill="none" xmlns="http://www.w3.org/2000/svg">
<g clip-path="url(#clip0_400_2012)">
<mask id="mask0_400_2012" style="mask-type:luminance" maskUnits="userSpaceOnUse" x="0" y="0" width="644" height="32">
<path d="M644 0H0V31.1111H644V0Z" fill="white"/>
</mask>
<g mask="url(#mask0_400_2012)">
<path d="M0 12.4445C0 8.08848 0 5.9105 0.847727 4.24674C1.59341 2.78326 2.78326 1.59341 4.24674 0.847727C5.9105 0 8.08848 0 12.4444 0H631.555C635.911 0 638.089 0 639.753 0.847727C641.217 1.59341 642.407 2.78326 643.152 4.24674C644 5.9105 644 8.08848 644 12.4444V31.1111H0V12.4445Z" fill="#25334D"/>
<mask id="mask1_400_2012" style="mask-type:luminance" maskUnits="userSpaceOnUse" x="556" y="5" width="76" height="20">
<path d="M631.555 5.44531H556.889V24.112H631.555V5.44531Z" fill="white"/>
</mask>
<g mask="url(#mask1_400_2012)">
<path d="M566.229 16.6239C566.557 16.6239 566.828 16.353 566.828 16.0305V9.54144L566.783 8.58679L567.176 9.05767L568.079 10.0188C568.182 10.1349 568.33 10.1929 568.478 10.1929C568.775 10.1929 569.02 9.98007 569.02 9.6769C569.02 9.51564 568.955 9.39953 568.846 9.28988L566.686 7.20641C566.532 7.0516 566.383 7 566.229 7C566.067 7 565.926 7.0516 565.771 7.20641L563.605 9.28988C563.496 9.39953 563.431 9.51564 563.431 9.6769C563.431 9.98007 563.67 10.1929 563.966 10.1929C564.114 10.1929 564.269 10.1349 564.372 10.0188L565.275 9.05767L565.674 8.58034L565.623 9.54144V16.0305C565.623 16.353 565.893 16.6239 566.229 16.6239ZM562.509 21.7778H569.935C571.334 21.7778 572.056 21.0553 572.056 19.675V13.3343C572.056 11.9539 571.334 11.2314 569.935 11.2314H568.195V12.5151H569.851C570.438 12.5151 570.773 12.8247 570.773 13.4439V19.5589C570.773 20.1781 570.438 20.4877 569.851 20.4877H562.593C562 20.4877 561.672 20.1781 561.672 19.5589V13.4439C561.672 12.8247 562 12.5151 562.593 12.5151H564.269V11.2314H562.509C561.117 11.2314 560.389 11.9474 560.389 13.3343V19.675C560.389 21.0553 561.117 21.7778 562.509 21.7778Z" fill="#B7B7B7"/>
<path d="M593.444 20.2249C593.854 20.2249 594.186 19.8922 594.186 19.5147V15.5098H598.154C598.551 15.5098 598.889 15.1835 598.889 14.7804C598.889 14.3838 598.551 14.0511 598.154 14.0511H594.186V10.0461C594.186 9.66223 593.854 9.33594 593.444 9.33594C593.041 9.33594 592.703 9.66223 592.703 10.0461V14.0511H588.735C588.351 14.0511 588 14.3838 588 14.7804C588 15.1835 588.351 15.5098 588.735 15.5098H592.703V19.5147C592.703 19.8922 593.041 20.2249 593.444 20.2249Z" fill="#B7B7B7"/>
<path d="M617.345 18.6962H618.441V19.6699C618.441 21.0499 619.17 21.7722 620.563 21.7722H627.102C628.494 21.7722 629.223 21.0499 629.223 19.6699V13.0858C629.223 11.7058 628.494 10.9836 627.102 10.9836H626.005V10.0163C626.005 8.63631 625.277 7.91406 623.884 7.91406H617.345C615.945 7.91406 615.223 8.63631 615.223 10.0163V16.5939C615.223 17.9804 615.945 18.6962 617.345 18.6962ZM617.429 17.4129C616.835 17.4129 616.506 17.1033 616.506 16.4778V10.1324C616.506 9.50688 616.835 9.20379 617.429 9.20379H623.8C624.387 9.20379 624.722 9.50688 624.722 10.1324V10.9836H620.563C619.17 10.9836 618.441 11.7058 618.441 13.0858V17.4129H617.429ZM620.646 20.4824C620.053 20.4824 619.731 20.1729 619.731 19.5538V13.2019C619.731 12.5828 620.053 12.2733 620.646 12.2733H627.018C627.611 12.2733 627.94 12.5828 627.94 13.2019V19.5538C627.94 20.1729 627.611 20.4824 627.018 20.4824H620.646Z" fill="#B7B7B7"/>
</g>
<mask id="mask2_400_2012" style="mask-type:luminance" maskUnits="userSpaceOnUse" x="74" y="5" width="77" height="20">
<path d="M150.888 5.44531H74.666V24.112H150.888V5.44531Z" fill="white"/>
</mask>
<g mask="url(#mask2_400_2012)">
<path d="M78.3448 21.4025H89.3913C90.7922 21.4025 91.5218 20.6795 91.5218 19.2978V11.4407C91.5218 10.0591 90.7922 9.33594 89.3913 9.33594H78.3448C76.9502 9.33594 76.2207 10.0526 76.2207 11.4407V19.2978C76.2207 20.6795 76.9502 21.4025 78.3448 21.4025ZM78.4287 20.1178C77.8347 20.1178 77.5055 19.8079 77.5055 19.1816V11.5569C77.5055 10.9306 77.8347 10.6208 78.4287 10.6208H81.3727V20.1178H78.4287ZM89.3073 10.6208C89.9013 10.6208 90.2306 10.9306 90.2306 11.5569V19.1816C90.2306 19.8079 89.9013 20.1178 89.3073 20.1178H82.5929V10.6208H89.3073ZM80.1073 12.9837C80.3397 12.9837 80.5334 12.7836 80.5334 12.5641C80.5334 12.3445 80.3397 12.1509 80.1073 12.1509H78.7838C78.5514 12.1509 78.3577 12.3445 78.3577 12.5641C78.3577 12.7836 78.5514 12.9837 78.7838 12.9837H80.1073ZM80.1073 14.7204C80.3397 14.7204 80.5334 14.5267 80.5334 14.3008C80.5334 14.0813 80.3397 13.8876 80.1073 13.8876H78.7838C78.5514 13.8876 78.3577 14.0813 78.3577 14.3008C78.3577 14.5267 78.5514 14.7204 78.7838 14.7204H80.1073ZM80.1073 16.4507C80.3397 16.4507 80.5334 16.2634 80.5334 16.0375C80.5334 15.818 80.3397 15.6307 80.1073 15.6307H78.7838C78.5514 15.6307 78.3577 15.818 78.3577 16.0375C78.3577 16.2634 78.5514 16.4507 78.7838 16.4507H80.1073Z" fill="#B7B7B7"/>
<path d="M116.198 20.2995L111.47 15.6754C111.306 15.5113 111.221 15.329 111.221 15.1163C111.221 14.9037 111.306 14.7092 111.476 14.5512L116.204 9.93316C116.338 9.79948 116.508 9.72656 116.702 9.72656C117.109 9.72656 117.425 10.0426 117.425 10.4436C117.425 10.638 117.346 10.8264 117.206 10.9662L112.953 15.1103L117.206 19.2665C117.346 19.4063 117.425 19.5886 117.425 19.7891C117.425 20.1901 117.109 20.5061 116.702 20.5061C116.508 20.5061 116.338 20.4332 116.198 20.2995Z" fill="#B7B7B7"/>
<path d="M139.555 20.5061C139.756 20.5061 139.92 20.4332 140.06 20.2995L144.787 15.6815C144.951 15.5113 145.036 15.3351 145.036 15.1163C145.036 14.9037 144.957 14.7153 144.787 14.5573L140.06 9.93316C139.92 9.79948 139.756 9.72656 139.555 9.72656C139.148 9.72656 138.832 10.0426 138.832 10.4436C138.832 10.638 138.917 10.8264 139.051 10.9662L143.311 15.1224L139.051 19.2665C138.911 19.4124 138.832 19.5886 138.832 19.7891C138.832 20.1901 139.148 20.5061 139.555 20.5061Z" fill="#5A5A5A"/>
</g>
<mask id="mask3_400_2012" style="mask-type:luminance" maskUnits="userSpaceOnUse" x="15" y="10" width="41" height="11">
<path d="M55.9991 10.8906H15.5547V20.224H55.9991V10.8906Z" fill="white"/>
</mask>
<g mask="url(#mask3_400_2012)">
<path d="M20.2214 20.224C22.7987 20.224 24.888 18.1346 24.888 15.5573C24.888 12.98 22.7987 10.8906 20.2214 10.8906C17.644 10.8906 15.5547 12.98 15.5547 15.5573C15.5547 18.1346 17.644 20.224 20.2214 20.224Z" fill="#ED6A5E"/>
<path d="M20.2211 19.8368C22.5837 19.8368 24.4989 17.9216 24.4989 15.559C24.4989 13.1965 22.5837 11.2812 20.2211 11.2812C17.8586 11.2812 15.9434 13.1965 15.9434 15.559C15.9434 17.9216 17.8586 19.8368 20.2211 19.8368Z" stroke="black" stroke-opacity="0.1" stroke-width="0.777778"/>
<path d="M35.776 20.224C38.3534 20.224 40.4427 18.1346 40.4427 15.5573C40.4427 12.98 38.3534 10.8906 35.776 10.8906C33.1987 10.8906 31.1094 12.98 31.1094 15.5573C31.1094 18.1346 33.1987 20.224 35.776 20.224Z" fill="#F4BD50"/>
<path d="M35.7778 19.8368C38.1403 19.8368 40.0556 17.9216 40.0556 15.559C40.0556 13.1965 38.1403 11.2812 35.7778 11.2812C33.4152 11.2812 31.5 13.1965 31.5 15.559C31.5 17.9216 33.4152 19.8368 35.7778 19.8368Z" stroke="black" stroke-opacity="0.1" stroke-width="0.777778"/>
<path d="M51.3327 20.224C53.91 20.224 55.9994 18.1346 55.9994 15.5573C55.9994 12.98 53.91 10.8906 51.3327 10.8906C48.7554 10.8906 46.666 12.98 46.666 15.5573C46.666 18.1346 48.7554 20.224 51.3327 20.224Z" fill="#61C454"/>
<path d="M51.3325 19.8368C53.695 19.8368 55.6102 17.9216 55.6102 15.559C55.6102 13.1965 53.695 11.2812 51.3325 11.2812C48.9699 11.2812 47.0547 13.1965 47.0547 15.559C47.0547 17.9216 48.9699 19.8368 51.3325 19.8368Z" stroke="black" stroke-opacity="0.1" stroke-width="0.777778"/>
</g>
<path d="M220.888 21.7769C221.004 21.7769 221.177 21.7379 221.338 21.6469C225.045 19.6132 226.332 18.6711 226.332 16.306V11.4005C226.332 10.6208 226.03 10.3414 225.386 10.062C224.672 9.75671 222.271 8.91205 221.57 8.67165C221.358 8.60017 221.107 8.55469 220.888 8.55469C220.669 8.55469 220.418 8.61317 220.206 8.67165C219.504 8.87306 217.104 9.76321 216.389 10.062C215.746 10.3349 215.443 10.6208 215.443 11.4005V16.306C215.443 18.6711 216.737 19.6002 220.431 21.6469C220.598 21.7379 220.772 21.7769 220.888 21.7769ZM221.235 9.86717C222.078 10.205 223.913 10.8612 224.878 11.2056C225.058 11.2771 225.103 11.3745 225.103 11.6084V16.0656C225.103 17.9694 224.157 18.4827 221.255 20.25C221.074 20.3604 220.984 20.3994 220.894 20.3994V9.7957C220.984 9.7957 221.081 9.81519 221.235 9.86717Z" fill="#B7B7B7"/>
<mask id="mask4_400_2012" style="mask-type:luminance" maskUnits="userSpaceOnUse" x="234" y="4" width="176" height="23">
<path d="M409.889 4.66406H234.111V26.4419H409.889V4.66406Z" fill="white"/>
</mask>
<g mask="url(#mask4_400_2012)">
<path d="M234.111 12.1307C234.111 9.51714 234.111 8.21035 234.62 7.2121C235.067 6.33401 235.781 5.6201 236.659 5.17269C237.657 4.66406 238.964 4.66406 241.578 4.66406H402.422C405.036 4.66406 406.343 4.66406 407.341 5.17269C408.219 5.6201 408.933 6.33401 409.38 7.2121C409.889 8.21035 409.889 9.51714 409.889 12.1307V18.9751C409.889 21.5887 409.889 22.8955 409.38 23.8938C408.933 24.7718 408.219 25.4858 407.341 25.9332C406.343 26.4418 405.036 26.4418 402.422 26.4418H241.578C238.964 26.4418 237.657 26.4418 236.659 25.9332C235.781 25.4858 235.067 24.7718 234.62 23.8938C234.111 22.8955 234.111 21.5887 234.111 18.9751V12.1307Z" fill="#3C5175"/>
<mask id="mask5_400_2012" style="mask-type:luminance" maskUnits="userSpaceOnUse" x="395" y="10" width="11" height="11">
<path d="M405.611 10.1094H395.5V20.9983H405.611V10.1094Z" fill="white"/>
</mask>
<g mask="url(#mask5_400_2012)">
<path d="M400.422 15.3418C400.555 15.3418 400.659 15.3008 400.741 15.2142L402.61 13.332C402.71 13.2318 402.756 13.1224 402.756 12.9948C402.756 12.8718 402.706 12.7533 402.61 12.6621L400.741 10.7617C400.659 10.6706 400.555 10.625 400.422 10.625C400.176 10.625 399.98 10.8301 399.98 11.0807C399.98 11.2038 400.026 11.3041 400.103 11.3906L401.193 12.457C400.978 12.4251 400.76 12.4069 400.541 12.4069C398.285 12.4069 396.48 14.2116 396.48 16.472C396.48 18.7324 398.299 20.5508 400.555 20.5508C402.815 20.5508 404.629 18.7324 404.629 16.472C404.629 16.1986 404.437 16.0026 404.164 16.0026C403.9 16.0026 403.722 16.1986 403.722 16.472C403.722 18.2311 402.314 19.6439 400.555 19.6439C398.8 19.6439 397.387 18.2311 397.387 16.472C397.387 14.6992 398.786 13.2956 400.541 13.2956C400.837 13.2956 401.111 13.3184 401.352 13.3594L400.108 14.5899C400.026 14.6719 399.98 14.7722 399.98 14.8952C399.98 15.1458 400.176 15.3418 400.422 15.3418Z" fill="#E3E3E3"/>
</g>
<path d="M248.001 10.1641C246.393 10.1641 245.084 11.4725 245.084 13.0808V14.8308H244.501C243.858 14.8308 243.334 15.354 243.334 15.9975V20.6641C243.334 21.3075 243.858 21.8308 244.501 21.8308H251.501C252.144 21.8308 252.668 21.3075 252.668 20.6641V15.9975C252.668 15.354 252.144 14.8308 251.501 14.8308H250.918V13.0808C250.918 11.4725 249.609 10.1641 248.001 10.1641ZM251.501 15.9975L251.502 20.6641H244.501V15.9975H251.501ZM246.251 14.8308V13.0808C246.251 12.116 247.036 11.3308 248.001 11.3308C248.966 11.3308 249.751 12.116 249.751 13.0808V14.8308H246.251Z" fill="white"/>
</g>
</g>
<path d="M287.75 20H285.057V11.2727H287.869C288.716 11.2727 289.44 11.4474 290.043 11.7969C290.645 12.1435 291.107 12.642 291.428 13.2926C291.749 13.9403 291.909 14.7159 291.909 15.6193C291.909 16.5284 291.747 17.3111 291.423 17.9673C291.099 18.6207 290.628 19.1236 290.009 19.4759C289.389 19.8253 288.636 20 287.75 20ZM286.114 19.0625H287.682C288.403 19.0625 289.001 18.9233 289.476 18.6449C289.95 18.3665 290.304 17.9702 290.537 17.456C290.77 16.9418 290.886 16.3295 290.886 15.6193C290.886 14.9148 290.771 14.3082 290.541 13.7997C290.311 13.2884 289.967 12.8963 289.51 12.6236C289.053 12.348 288.483 12.2102 287.801 12.2102H286.114V19.0625ZM295.472 20.1534C295.057 20.1534 294.68 20.0753 294.342 19.919C294.004 19.7599 293.736 19.5312 293.537 19.233C293.338 18.9318 293.239 18.5682 293.239 18.142C293.239 17.767 293.313 17.4631 293.46 17.2301C293.608 16.9943 293.805 16.8097 294.053 16.6761C294.3 16.5426 294.572 16.4432 294.871 16.3778C295.172 16.3097 295.474 16.2557 295.778 16.2159C296.176 16.1648 296.499 16.1264 296.746 16.1009C296.996 16.0724 297.178 16.0256 297.291 15.9602C297.408 15.8949 297.466 15.7812 297.466 15.6193V15.5852C297.466 15.1648 297.351 14.8381 297.121 14.6051C296.893 14.3722 296.548 14.2557 296.085 14.2557C295.605 14.2557 295.229 14.3608 294.956 14.571C294.683 14.7812 294.491 15.0057 294.381 15.2443L293.426 14.9034C293.597 14.5057 293.824 14.196 294.108 13.9744C294.395 13.75 294.707 13.5937 295.045 13.5057C295.386 13.4148 295.722 13.3693 296.051 13.3693C296.261 13.3693 296.503 13.3949 296.776 13.446C297.051 13.4943 297.317 13.5952 297.572 13.7486C297.831 13.902 298.045 14.1335 298.216 14.4432C298.386 14.7528 298.472 15.1676 298.472 15.6875V20H297.466V19.1136H297.415C297.347 19.2557 297.233 19.4077 297.074 19.5696C296.915 19.7315 296.703 19.8693 296.439 19.983C296.175 20.0966 295.852 20.1534 295.472 20.1534ZM295.625 19.25C296.023 19.25 296.358 19.1719 296.631 19.0156C296.906 18.8594 297.114 18.6577 297.253 18.4105C297.395 18.1634 297.466 17.9034 297.466 17.6307V16.7102C297.423 16.7614 297.33 16.8082 297.185 16.8509C297.043 16.8906 296.878 16.9261 296.69 16.9574C296.506 16.9858 296.325 17.0114 296.149 17.0341C295.976 17.054 295.835 17.071 295.727 17.0852C295.466 17.1193 295.222 17.1747 294.994 17.2514C294.77 17.3253 294.588 17.4375 294.449 17.5881C294.313 17.7358 294.244 17.9375 294.244 18.1932C294.244 18.5426 294.374 18.8068 294.632 18.9858C294.893 19.1619 295.224 19.25 295.625 19.25ZM301.313 16.0625V20H300.307V13.4545H301.279V14.4773H301.364C301.517 14.1449 301.75 13.8778 302.063 13.6761C302.375 13.4716 302.779 13.3693 303.273 13.3693C303.716 13.3693 304.104 13.4602 304.436 13.642C304.769 13.821 305.027 14.0938 305.212 14.4602C305.397 14.8239 305.489 15.2841 305.489 15.8409V20H304.483V15.9091C304.483 15.3949 304.35 14.9943 304.083 14.7074C303.816 14.4176 303.449 14.2727 302.983 14.2727C302.662 14.2727 302.375 14.3423 302.123 14.4815C301.873 14.6207 301.675 14.8239 301.53 15.0909C301.385 15.358 301.313 15.6818 301.313 16.0625ZM307.327 20V13.4545H308.332V20H307.327ZM307.838 12.3636C307.642 12.3636 307.473 12.2969 307.331 12.1634C307.192 12.0298 307.122 11.8693 307.122 11.6818C307.122 11.4943 307.192 11.3338 307.331 11.2003C307.473 11.0668 307.642 11 307.838 11C308.034 11 308.202 11.0668 308.341 11.2003C308.483 11.3338 308.554 11.4943 308.554 11.6818C308.554 11.8693 308.483 12.0298 308.341 12.1634C308.202 12.2969 308.034 12.3636 307.838 12.3636ZM311.18 11.2727V20H310.174V11.2727H311.18ZM322.499 14C322.406 13.7131 322.282 13.456 322.129 13.2287C321.978 12.9986 321.798 12.8026 321.587 12.6406C321.38 12.4787 321.144 12.3551 320.88 12.2699C320.616 12.1847 320.326 12.142 320.011 12.142C319.494 12.142 319.023 12.2756 318.6 12.5426C318.177 12.8097 317.84 13.2031 317.59 13.723C317.34 14.2429 317.215 14.8807 317.215 15.6364C317.215 16.392 317.342 17.0298 317.594 17.5497C317.847 18.0696 318.19 18.4631 318.621 18.7301C319.053 18.9972 319.539 19.1307 320.079 19.1307C320.579 19.1307 321.019 19.0241 321.4 18.8111C321.783 18.5952 322.082 18.2912 322.295 17.8991C322.511 17.5043 322.619 17.0398 322.619 16.5057L322.942 16.5739H320.317V15.6364H323.641V16.5739C323.641 17.2926 323.488 17.9176 323.181 18.4489C322.877 18.9801 322.457 19.392 321.92 19.6847C321.386 19.9744 320.772 20.1193 320.079 20.1193C319.306 20.1193 318.627 19.9375 318.042 19.5739C317.46 19.2102 317.005 18.6932 316.678 18.0227C316.354 17.3523 316.192 16.5568 316.192 15.6364C316.192 14.946 316.285 14.3253 316.469 13.7741C316.657 13.2202 316.921 12.7486 317.262 12.3594C317.603 11.9702 318.006 11.6719 318.472 11.4645C318.938 11.2571 319.451 11.1534 320.011 11.1534C320.471 11.1534 320.9 11.223 321.298 11.3622C321.698 11.4986 322.055 11.6932 322.367 11.946C322.683 12.196 322.945 12.4957 323.156 12.8452C323.366 13.1918 323.511 13.5767 323.59 14H322.499ZM327.974 20.1364C327.383 20.1364 326.865 19.9957 326.419 19.7145C325.975 19.4332 325.629 19.0398 325.379 18.5341C325.132 18.0284 325.008 17.4375 325.008 16.7614C325.008 16.0795 325.132 15.4844 325.379 14.9759C325.629 14.4673 325.975 14.0724 326.419 13.7912C326.865 13.5099 327.383 13.3693 327.974 13.3693C328.565 13.3693 329.082 13.5099 329.525 13.7912C329.971 14.0724 330.318 14.4673 330.565 14.9759C330.815 15.4844 330.94 16.0795 330.94 16.7614C330.94 17.4375 330.815 18.0284 330.565 18.5341C330.318 19.0398 329.971 19.4332 329.525 19.7145C329.082 19.9957 328.565 20.1364 327.974 20.1364ZM327.974 19.233C328.423 19.233 328.792 19.1179 329.082 18.8878C329.372 18.6577 329.586 18.3551 329.725 17.9801C329.865 17.6051 329.934 17.1989 329.934 16.7614C329.934 16.3239 329.865 15.9162 329.725 15.5384C329.586 15.1605 329.372 14.8551 329.082 14.6222C328.792 14.3892 328.423 14.2727 327.974 14.2727C327.525 14.2727 327.156 14.3892 326.866 14.6222C326.576 14.8551 326.362 15.1605 326.223 15.5384C326.083 15.9162 326.014 16.3239 326.014 16.7614C326.014 17.1989 326.083 17.6051 326.223 17.9801C326.362 18.3551 326.576 18.6577 326.866 18.8878C327.156 19.1179 327.525 19.233 327.974 19.233ZM332.475 20V13.4545H333.447V14.4432H333.515C333.634 14.1193 333.85 13.8565 334.163 13.6548C334.475 13.4531 334.827 13.3523 335.219 13.3523C335.293 13.3523 335.386 13.3537 335.496 13.3565C335.607 13.3594 335.691 13.3636 335.748 13.3693V14.392C335.714 14.3835 335.636 14.3707 335.513 14.3537C335.394 14.3338 335.268 14.3239 335.134 14.3239C334.816 14.3239 334.532 14.3906 334.282 14.5241C334.035 14.6548 333.839 14.8366 333.694 15.0696C333.552 15.2997 333.481 15.5625 333.481 15.858V20H332.475ZM337.076 20V11.2727H338.082V14.4943H338.167C338.241 14.3807 338.343 14.2358 338.474 14.0597C338.608 13.8807 338.798 13.7216 339.045 13.5824C339.295 13.4403 339.633 13.3693 340.059 13.3693C340.61 13.3693 341.096 13.5071 341.517 13.7827C341.937 14.0582 342.265 14.4489 342.501 14.9545C342.737 15.4602 342.855 16.0568 342.855 16.7443C342.855 17.4375 342.737 18.0384 342.501 18.5469C342.265 19.0526 341.939 19.4446 341.521 19.723C341.103 19.9986 340.622 20.1364 340.076 20.1364C339.656 20.1364 339.319 20.0668 339.066 19.9276C338.814 19.7855 338.619 19.625 338.483 19.446C338.346 19.2642 338.241 19.1136 338.167 18.9943H338.048V20H337.076ZM338.065 16.7273C338.065 17.2216 338.137 17.6577 338.282 18.0355C338.427 18.4105 338.639 18.7045 338.917 18.9176C339.196 19.1278 339.537 19.233 339.94 19.233C340.36 19.233 340.711 19.1222 340.993 18.9006C341.277 18.6761 341.49 18.375 341.632 17.9972C341.777 17.6165 341.849 17.1932 341.849 16.7273C341.849 16.267 341.778 15.8523 341.636 15.483C341.497 15.1108 341.285 14.8168 341.001 14.6009C340.72 14.3821 340.366 14.2727 339.94 14.2727C339.531 14.2727 339.187 14.3764 338.909 14.5838C338.63 14.7884 338.42 15.0753 338.278 15.4446C338.136 15.8111 338.065 16.2386 338.065 16.7273ZM348.518 17.3239V13.4545H349.524V20H348.518V18.892H348.45C348.297 19.2244 348.058 19.5071 347.734 19.7401C347.41 19.9702 347.001 20.0852 346.507 20.0852C346.098 20.0852 345.734 19.9957 345.416 19.8168C345.098 19.6349 344.848 19.3622 344.666 18.9986C344.484 18.6321 344.393 18.1705 344.393 17.6136V13.4545H345.399V17.5455C345.399 18.0227 345.532 18.4034 345.799 18.6875C346.069 18.9716 346.413 19.1136 346.831 19.1136C347.081 19.1136 347.335 19.0497 347.593 18.9219C347.855 18.794 348.074 18.598 348.25 18.3338C348.429 18.0696 348.518 17.733 348.518 17.3239ZM352.371 16.0625V20H351.366V13.4545H352.337V14.4773H352.423C352.576 14.1449 352.809 13.8778 353.121 13.6761C353.434 13.4716 353.837 13.3693 354.332 13.3693C354.775 13.3693 355.163 13.4602 355.495 13.642C355.827 13.821 356.086 14.0938 356.271 14.4602C356.455 14.8239 356.548 15.2841 356.548 15.8409V20H355.542V15.9091C355.542 15.3949 355.408 14.9943 355.141 14.7074C354.874 14.4176 354.508 14.2727 354.042 14.2727C353.721 14.2727 353.434 14.3423 353.181 14.4815C352.931 14.6207 352.734 14.8239 352.589 15.0909C352.444 15.358 352.371 15.6818 352.371 16.0625ZM361.044 20.1364C360.453 20.1364 359.935 19.9957 359.489 19.7145C359.046 19.4332 358.699 19.0398 358.449 18.5341C358.202 18.0284 358.078 17.4375 358.078 16.7614C358.078 16.0795 358.202 15.4844 358.449 14.9759C358.699 14.4673 359.046 14.0724 359.489 13.7912C359.935 13.5099 360.453 13.3693 361.044 13.3693C361.635 13.3693 362.152 13.5099 362.596 13.7912C363.042 14.0724 363.388 14.4673 363.635 14.9759C363.885 15.4844 364.01 16.0795 364.01 16.7614C364.01 17.4375 363.885 18.0284 363.635 18.5341C363.388 19.0398 363.042 19.4332 362.596 19.7145C362.152 19.9957 361.635 20.1364 361.044 20.1364ZM361.044 19.233C361.493 19.233 361.863 19.1179 362.152 18.8878C362.442 18.6577 362.657 18.3551 362.796 17.9801C362.935 17.6051 363.005 17.1989 363.005 16.7614C363.005 16.3239 362.935 15.9162 362.796 15.5384C362.657 15.1605 362.442 14.8551 362.152 14.6222C361.863 14.3892 361.493 14.2727 361.044 14.2727C360.596 14.2727 360.226 14.3892 359.936 14.6222C359.647 14.8551 359.432 15.1605 359.293 15.5384C359.154 15.9162 359.084 16.3239 359.084 16.7614C359.084 17.1989 359.154 17.6051 359.293 17.9801C359.432 18.3551 359.647 18.6577 359.936 18.8878C360.226 19.1179 360.596 19.233 361.044 19.233ZM370.663 13.4545L368.243 20H367.22L364.8 13.4545H365.891L367.697 18.6705H367.766L369.572 13.4545H370.663Z" fill="white"/>
</g>
<defs>
<clipPath id="clip0_400_2012">
<rect width="644" height="32" fill="white"/>
</clipPath>
</defs>
</svg>
