<svg width="100" height="100" viewBox="0 0 100 100" xmlns="http://www.w3.org/2000/svg">
  <path d="M72.6021 5.98767C73.5392 5.98034 74.4676 6.17668 75.3278 6.56416C76.1533 6.93437 76.9042 7.464 77.5408 8.12511C78.1751 8.78851 78.6834 9.571 79.0386 10.4313C79.4086 11.3185 79.597 12.2764 79.597 13.2437C79.597 14.2111 79.4086 15.169 79.0386 16.0562C78.6834 16.9165 78.1751 17.699 77.5408 18.3624C76.9042 19.0235 76.1533 19.5531 75.3278 19.9233C74.4676 20.3108 73.5392 20.5071 72.6021 20.4998C71.665 20.5007 70.7366 20.3108 69.8764 19.9233C69.0509 19.5531 68.3 19.0235 67.6634 18.3624C67.0291 17.699 66.5208 16.9165 66.1656 16.0562C65.7956 15.169 65.6072 14.2111 65.6072 13.2437C65.6072 12.2764 65.7956 11.3185 66.1656 10.4313C66.5208 9.571 67.0291 8.78851 67.6634 8.12511C68.3 7.46404 69.0509 6.93444 69.8764 6.56427C70.7366 6.17675 71.665 5.98037 72.6021 5.98767Z" fill="black"/>
</svg>